<?xml version="1.0" standalone="no"?>
<!DOCTYPE svg PUBLIC "-//W3C//DTD SVG 20010904//EN"
 "http://www.w3.org/TR/2001/REC-SVG-20010904/DTD/svg10.dtd">
<svg version="1.0" xmlns="http://www.w3.org/2000/svg"
 width="700.000000pt" height="700.000000pt" viewBox="0 0 700.000000 700.000000"
 preserveAspectRatio="xMidYMid meet">
<metadata>
Created by potrace 1.14, written by Peter Selinger 2001-2017
</metadata>
<g transform="translate(0.000000,700.000000) scale(0.100000,-0.100000)"
fill="#000000" stroke="none">
<path d="M4475 6993 c-31 -8 -84 -64 -93 -98 -10 -38 -8 -1718 2 -1805 64
-542 473 -994 1011 -1118 128 -30 337 -43 425 -27 14 2 43 6 65 9 179 20 412
117 582 241 249 184 423 450 501 765 l26 105 3 897 c3 625 1 909 -7 937 -21
81 -135 126 -206 82 -17 -10 -126 -146 -247 -307 -119 -159 -220 -293 -225
-299 -4 -5 -47 -62 -94 -126 -47 -64 -92 -118 -100 -121 -7 -2 -205 -4 -440
-3 l-428 0 -19 25 c-11 14 -57 75 -102 135 -45 61 -90 121 -100 135 -11 14
-107 141 -213 284 -107 142 -204 264 -215 272 -22 16 -95 26 -126 17z m889
-1559 c24 -15 56 -48 72 -73 25 -39 29 -56 28 -113 0 -59 -4 -73 -34 -117
-100 -147 -311 -125 -382 39 -15 35 -18 57 -14 99 8 63 18 85 60 129 72 76
183 91 270 36z m864 7 c113 -58 148 -211 73 -316 -110 -155 -355 -101 -389 86
-33 178 153 313 316 230z"/>
<path d="M351 5679 c-211 -40 -366 -245 -347 -460 10 -113 51 -204 127 -279
79 -78 159 -111 326 -134 131 -18 213 -55 287 -129 57 -56 95 -122 117 -197
10 -36 13 -388 15 -1670 1 -894 4 -1634 7 -1645 2 -11 8 -45 12 -75 12 -86 62
-245 108 -339 127 -263 348 -487 605 -615 77 -39 224 -91 282 -101 19 -3 42
-8 50 -10 8 -2 29 -8 45 -12 17 -4 525 -8 1130 -10 1205 -2 1153 -4 1260 57
107 61 195 189 212 310 34 227 -108 437 -333 493 -35 9 -165 13 -451 12 -222
0 -403 3 -403 7 0 5 3 8 8 8 4 0 18 10 32 23 14 12 99 81 189 152 90 72 171
137 181 145 9 8 32 26 50 40 18 14 38 30 44 35 6 6 42 35 81 65 38 30 79 63
90 72 11 9 94 76 185 148 244 195 241 193 280 225 20 17 54 44 75 60 21 17
112 89 201 160 89 72 179 144 200 160 21 17 81 64 133 107 l96 76 5 -1006 c5
-1005 5 -1007 27 -1065 120 -319 546 -385 754 -118 36 47 67 106 74 141 2 11
7 26 12 33 7 11 12 3207 5 3207 -2 0 -59 -10 -125 -22 -179 -31 -485 -31 -630
1 -23 6 -58 13 -77 16 -72 12 -279 88 -380 138 -88 44 -242 137 -260 157 -3 3
-21 17 -40 31 -131 99 -297 281 -390 427 -25 38 -52 72 -60 74 -39 10 -472 -3
-547 -16 -10 -2 -40 -7 -68 -11 -27 -5 -57 -9 -65 -10 -128 -21 -294 -65 -445
-120 -240 -87 -492 -226 -705 -389 -144 -110 -376 -344 -488 -494 l-92 -123
-1 613 c-1 610 -2 653 -19 758 -16 97 -20 114 -47 195 -124 380 -400 668 -788
824 -61 25 -192 57 -264 66 -30 4 -63 9 -75 11 -42 10 -162 11 -205 3z"/>
</g>
</svg>
